# xmcd
#
# Track frame offsets:
#	150
#	19028
#	38332
#	55526
#	71762
#	91806
#	111814
#	129133
#	146972
#	160524
#	173928
#	197484
#	216194
#	227739
#	243270
#	264257
#	277565
#
# Disc length: 4080
#
# Revision: 1
# Processed by: cddbd v1.5.1PL0 Copyright (c) Steve Scherf et al.
# Submitted via: audiograbber 1.83.01
# Normalized: r0:DSETVAR1
#
DISCID=d30fee11
DTITLE=Various Artist - The No.1 Love Song Collection CD1
DYEAR=1997
DGENRE=Ballad
TTITLE0=Cliff Richard and Sarah Brightman - All I ask of you
TTITLE1=Chris de Burgh - Lady in red
TTITLE2=Glen Medeiros - Nothing gonna change my love for you
TTITLE3=Commodores - Three times a lady
TTITLE4=Diana Ross and Lionel Richie - Endless love
TTITLE5=Styx - Babe
TTITLE6=Joe Cocker and Jennifer Warnes - Up where we belong
TTITLE7=Smokie - If you think you know how to love me
TTITLE8=Bee Gees - To love someone
TTITLE9=The Troggs - Love is all around
TTITLE10=Agnetha Faltskog - Wrap your arms around me
TTITLE11=Joe Esposito - Lady lady lady
TTITLE12=Cat Stevens - Oh very young
TTITLE13=Joan Baez - Imagine
TTITLE14=Rod Stewart - Jealous guy
TTITLE15=Elvin Bishop - Fooled around and fell in love
TTITLE16=Flying Burrito Brothers - Wild horses
EXTD=
EXTT0=
EXTT1=
EXTT2=
EXTT3=
EXTT4=
EXTT5=
EXTT6=
EXTT7=
EXTT8=
EXTT9=
EXTT10=
EXTT11=
EXTT12=
EXTT13=
EXTT14=
EXTT15=
EXTT16=
PLAYORDER=
